<svg xmlns="http://www.w3.org/2000/svg" width="60.14" height="60.14" viewBox="0 0 60.14 60.14">
  <g id="add" transform="translate(0 -0.001)">
    <g id="Group_56" data-name="Group 56" transform="translate(0 0.001)">
      <path id="Path_127" data-name="Path 127" d="M56.876,25.875H34.266V3.264A4.056,4.056,0,0,0,30.07,0a4.056,4.056,0,0,0-4.2,3.263V25.875H3.263A4.056,4.056,0,0,0,0,30.071a4.056,4.056,0,0,0,3.263,4.2H25.874V56.877a4.056,4.056,0,0,0,4.2,3.263,4.056,4.056,0,0,0,4.2-3.263V34.267H56.877a4.056,4.056,0,0,0,3.263-4.2A4.056,4.056,0,0,0,56.876,25.875Z" transform="translate(0 -0.001)" fill="#ffd500"/>
    </g>
  </g>
</svg>
