<svg id="appointment" xmlns="http://www.w3.org/2000/svg" width="80" height="80" viewBox="0 0 80 80">
  <g id="Group_13" data-name="Group 13">
    <g id="Group_12" data-name="Group 12">
      <path id="Path_109" data-name="Path 109" d="M72.188,6.875H64.74V4.688a4.687,4.687,0,1,0-9.375,0V6.875H29.115V4.688a4.688,4.688,0,1,0-9.375,0V6.933a1.559,1.559,0,0,0-.417-.058H13.1a7.821,7.821,0,0,0-7.813,7.812V41.3a1.563,1.563,0,0,0,3.125,0V22.969H64.74a1.563,1.563,0,1,0,0-3.125H8.41V14.687A4.693,4.693,0,0,1,13.1,10h6.226a1.566,1.566,0,0,0,.417-.058v2.011a4.688,4.688,0,0,0,9.375,0V10h26.25v1.953a4.687,4.687,0,1,0,9.375,0V10h7.448a4.693,4.693,0,0,1,4.687,4.687V74.062a2.813,2.813,0,1,1-5.627,0V70.02a1.563,1.563,0,0,0-1.563-1.563H51.51a1.563,1.563,0,1,0,0,3.125H68.123v2.48a5.9,5.9,0,0,0,.71,2.813H5.938a2.816,2.816,0,0,1-2.813-2.812v-2.48H38.1a1.563,1.563,0,1,0,0-3.125H22.486a12.813,12.813,0,1,0-16.7,0H1.563A1.563,1.563,0,0,0,0,70.02v4.043A5.944,5.944,0,0,0,5.938,80H74.062A5.945,5.945,0,0,0,80,74.062V14.687A7.821,7.821,0,0,0,72.188,6.875Zm-46.2,5.078a1.563,1.563,0,0,1-3.125,0V4.688a1.563,1.563,0,0,1,3.125,0Zm35.625,0a1.562,1.562,0,1,1-3.125,0V4.688a1.562,1.562,0,1,1,3.125,0ZM4.45,58.75a9.688,9.688,0,1,1,9.688,9.688A9.7,9.7,0,0,1,4.45,58.75Z" fill="#ffd500"/>
    </g>
  </g>
  <g id="Group_15" data-name="Group 15" transform="translate(70.506 19.844)">
    <g id="Group_14" data-name="Group 14">
      <path id="Path_110" data-name="Path 110" d="M453.907,127.458a1.561,1.561,0,1,0,.458,1.1A1.574,1.574,0,0,0,453.907,127.458Z" transform="translate(-451.24 -127)" fill="#ffd500"/>
    </g>
  </g>
  <g id="Group_17" data-name="Group 17" transform="translate(43.997 68.458)">
    <g id="Group_16" data-name="Group 16">
      <path id="Path_111" data-name="Path 111" d="M284.247,438.586a1.563,1.563,0,1,0,.458,1.1A1.572,1.572,0,0,0,284.247,438.586Z" transform="translate(-281.58 -438.13)" fill="#ffd500"/>
    </g>
  </g>
  <g id="Group_19" data-name="Group 19" transform="translate(29.413 47.5)">
    <g id="Group_18" data-name="Group 18">
      <path id="Path_112" data-name="Path 112" d="M194.182,304a5.938,5.938,0,1,0,5.938,5.938A5.944,5.944,0,0,0,194.182,304Zm0,8.75A2.813,2.813,0,1,1,197,309.938,2.816,2.816,0,0,1,194.182,312.75Z" transform="translate(-188.245 -304)" fill="#ffd500"/>
    </g>
  </g>
  <g id="Group_21" data-name="Group 21" transform="translate(43.997 47.5)">
    <g id="Group_20" data-name="Group 20">
      <path id="Path_113" data-name="Path 113" d="M287.516,304a5.938,5.938,0,1,0,5.938,5.938A5.944,5.944,0,0,0,287.516,304Zm0,8.75a2.813,2.813,0,1,1,2.813-2.812A2.816,2.816,0,0,1,287.516,312.75Z" transform="translate(-281.578 -304)" fill="#ffd500"/>
    </g>
  </g>
  <g id="Group_23" data-name="Group 23" transform="translate(58.58 47.5)">
    <g id="Group_22" data-name="Group 22">
      <path id="Path_114" data-name="Path 114" d="M380.849,304a5.938,5.938,0,1,0,5.938,5.938A5.944,5.944,0,0,0,380.849,304Zm0,8.75a2.813,2.813,0,1,1,2.813-2.812A2.816,2.816,0,0,1,380.849,312.75Z" transform="translate(-374.912 -304)" fill="#ffd500"/>
    </g>
  </g>
  <g id="Group_25" data-name="Group 25" transform="translate(14.83 31.25)">
    <g id="Group_24" data-name="Group 24">
      <path id="Path_115" data-name="Path 115" d="M100.85,200a5.938,5.938,0,1,0,5.938,5.938A5.944,5.944,0,0,0,100.85,200Zm0,8.75a2.813,2.813,0,1,1,2.813-2.813A2.816,2.816,0,0,1,100.85,208.75Z" transform="translate(-94.912 -200)" fill="#ffd500"/>
    </g>
  </g>
  <g id="Group_27" data-name="Group 27" transform="translate(43.997 31.25)">
    <g id="Group_26" data-name="Group 26">
      <path id="Path_116" data-name="Path 116" d="M287.516,200a5.938,5.938,0,1,0,5.938,5.938A5.944,5.944,0,0,0,287.516,200Zm0,8.75a2.813,2.813,0,1,1,2.813-2.813A2.816,2.816,0,0,1,287.516,208.75Z" transform="translate(-281.578 -200)" fill="#ffd500"/>
    </g>
  </g>
  <g id="Group_29" data-name="Group 29" transform="translate(58.58 31.25)">
    <g id="Group_28" data-name="Group 28">
      <path id="Path_117" data-name="Path 117" d="M380.849,200a5.938,5.938,0,1,0,5.938,5.938A5.944,5.944,0,0,0,380.849,200Zm0,8.75a2.813,2.813,0,1,1,2.813-2.813A2.816,2.816,0,0,1,380.849,208.75Z" transform="translate(-374.912 -200)" fill="#ffd500"/>
    </g>
  </g>
  <g id="Group_31" data-name="Group 31" transform="translate(29.413 31.25)">
    <g id="Group_30" data-name="Group 30">
      <path id="Path_118" data-name="Path 118" d="M194.182,200a5.938,5.938,0,1,0,5.938,5.938A5.944,5.944,0,0,0,194.182,200Zm0,8.75A2.813,2.813,0,1,1,197,205.937,2.816,2.816,0,0,1,194.182,208.75Z" transform="translate(-188.245 -200)" fill="#ffd500"/>
    </g>
  </g>
  <g id="Group_33" data-name="Group 33" transform="translate(7.999 54.484)">
    <g id="Group_32" data-name="Group 32">
      <path id="Path_119" data-name="Path 119" d="M62.9,349.158a1.563,1.563,0,0,0-2.21,0L55.6,354.246l-1.739-1.739a1.563,1.563,0,0,0-2.21,2.21l2.844,2.844a1.562,1.562,0,0,0,2.21,0l6.193-6.193A1.562,1.562,0,0,0,62.9,349.158Z" transform="translate(-51.194 -348.7)" fill="#ffd500"/>
    </g>
  </g>
</svg>
