<svg xmlns="http://www.w3.org/2000/svg" width="20" height="21.996" viewBox="0 0 20 21.996">
  <defs>
    <style>
      .cls-1 {
        fill: #656ed4;
      }

      .cls-2 {
        fill: none;
        stroke: #656ed4;
        stroke-linecap: round;
        stroke-linejoin: round;
        stroke-width: 2px;
      }
    </style>
  </defs>
  <g id="Group_96" data-name="Group 96" transform="translate(-328 -65)">
    <path id="Path_53" data-name="Path 53" class="cls-1" d="M4186.5,123.477c1.57,1.036-16.04,0-16.04,0s1.243-5.387,1.657-7.873,2.9-7.666,7.666-7.044,4.351,8.287,4.351,8.287S4184.93,122.441,4186.5,123.477Z" transform="translate(-3840 -43)"/>
    <path id="Path_16" data-name="Path 16" class="cls-2" d="M18,8A6,6,0,0,0,6,8c0,7-3,9-3,9H21s-3-2-3-9" transform="translate(326 64)"/>
    <path id="Path_17" data-name="Path 17" class="cls-2" d="M13.73,21a2,2,0,0,1-3.46,0" transform="translate(326 64)"/>
  </g>
</svg>
