<svg xmlns="http://www.w3.org/2000/svg" width="87" height="87" viewBox="0 0 87 87">
  <g id="Group_91" data-name="Group 91" transform="translate(-153 -297.5)">
    <rect id="Rectangle_169" data-name="Rectangle 169" width="87" height="87" rx="20" transform="translate(153 297.5)" fill="#fff"/>
    <g id="paw-print-" transform="translate(164.387 312.895)">
      <g id="Group_1" data-name="Group 1" transform="translate(0 0)">
        <path id="Path_86" data-name="Path 86" d="M85.425,51.114c5.122,0,9.288-5.591,9.288-12.464s-4.166-12.465-9.288-12.465-9.287,5.592-9.287,12.465S80.3,51.114,85.425,51.114Z" transform="translate(-63.624 -26.184)" fill="#ffd500"/>
        <path id="Path_87" data-name="Path 87" d="M103.971,198.077a4.81,4.81,0,0,1-.471-.715c-2.077-4.445-7.769-9.686-16.992-9.816l-.355,0c-9.081,0-14.731,4.963-16.992,9.61a3.6,3.6,0,0,1-.432.583,7.743,7.743,0,0,0-.61.8,16.326,16.326,0,0,0-2.74,9.418,8.978,8.978,0,0,0,3.876,7.448,5.556,5.556,0,0,0,3.044.916c2.213,0,4.239-1.247,6.587-2.69a33.709,33.709,0,0,1,4.748-2.58,10.712,10.712,0,0,1,2.265-.16,13.685,13.685,0,0,1,2.863.217,31.307,31.307,0,0,1,4.561,2.641c2.177,1.435,4.233,2.789,6.464,2.789a5.533,5.533,0,0,0,2.76-.75c4.829-2.744,5.749-10.271,2.052-16.779A9.225,9.225,0,0,0,103.971,198.077Z" transform="translate(-54.622 -161.022)" fill="#ffd500"/>
        <path id="Path_88" data-name="Path 88" d="M205.573,51.114c5.119,0,9.286-5.591,9.286-12.464s-4.167-12.465-9.286-12.465-9.288,5.592-9.288,12.465S200.451,51.114,205.573,51.114Z" transform="translate(-164.023 -26.184)" fill="#ffd500"/>
        <path id="Path_89" data-name="Path 89" d="M308.392,138.918c-4.1,0-7.318,4.257-7.318,9.692s3.215,9.69,7.318,9.69,7.319-4.258,7.319-9.69S312.5,138.918,308.392,138.918Z" transform="translate(-251.589 -120.389)" fill="#ffd500"/>
        <path id="Path_90" data-name="Path 90" d="M14.636,148.61c0-5.435-3.215-9.692-7.318-9.692S0,143.175,0,148.61s3.215,9.69,7.318,9.69S14.636,154.042,14.636,148.61Z" transform="translate(0 -120.389)" fill="#ffd500"/>
      </g>
    </g>
  </g>
</svg>
