<svg xmlns="http://www.w3.org/2000/svg" width="83.656" height="73.001" viewBox="0 0 83.656 73.001">
  <g id="heartbeat" transform="translate(0.5 -32.5)">
    <g id="Group_34" data-name="Group 34" transform="translate(0 33)">
      <path id="Path_120" data-name="Path 120" d="M60.7,33c-6.834,0-12.774,3.253-17.177,9.407a31.473,31.473,0,0,0-2.2,3.559,31.472,31.472,0,0,0-2.2-3.559C34.73,36.253,28.79,33,21.955,33,9.3,33,0,43.535,0,56.451,0,70.847,11.7,80.7,29.4,95.612c3.3,2.778,6.708,5.65,10.34,8.8a2.421,2.421,0,0,0,3.172,0c3.631-3.147,7.042-6.02,10.34-8.8,17.705-14.913,29.4-24.765,29.4-39.161C82.656,43.538,73.361,33,60.7,33ZM50.133,91.908c-2.828,2.382-5.738,4.833-8.806,7.472-3.068-2.639-5.978-5.091-8.806-7.472C23.006,83.892,15.334,77.429,10.5,71.1H21.955a2.421,2.421,0,0,0,2.166-1.339L26.8,64.406l7.52,15.041a2.421,2.421,0,0,0,4.332,0l2.677-5.355,2.677,5.354a2.421,2.421,0,0,0,4.332,0l7.52-15.04,2.677,5.354A2.406,2.406,0,0,0,60.7,71.083H72.153C67.321,77.413,59.65,83.892,50.133,91.908ZM62.2,66.256l-4.174-8.348a2.421,2.421,0,0,0-4.332,0l-7.52,15.04-2.677-5.354a2.421,2.421,0,0,0-4.332,0l-2.677,5.354-7.52-15.041a2.421,2.421,0,0,0-4.332,0l-4.174,8.348H7.374a20.829,20.829,0,0,1-2.531-9.805c0-10.608,7.357-18.608,17.112-18.608,5.238,0,9.665,2.446,13.158,7.271A27.733,27.733,0,0,1,39,52.862a2.422,2.422,0,0,0,4.666,0c.042-.15,4.305-15.014,17.039-15.014,9.756,0,17.112,8,17.112,18.608a20.829,20.829,0,0,1-2.531,9.805Z" transform="translate(0 -33)" fill="#ffd500" stroke="#fff" stroke-width="1"/>
    </g>
  </g>
</svg>
