<svg xmlns="http://www.w3.org/2000/svg" width="82.285" height="71.241" viewBox="0 0 82.285 71.241">
  <g id="paw-print" transform="translate(0 -4.258)">
    <g id="Group_11" data-name="Group 11" transform="translate(0 4.258)">
      <path id="Path_104" data-name="Path 104" d="M24.3,36.251c6.572,0,11.919-7.176,11.919-16s-5.347-16-11.919-16-11.919,7.176-11.919,16S17.728,36.251,24.3,36.251Zm0-28.1c4.351,0,8.028,5.544,8.028,12.106S28.654,32.36,24.3,32.36s-8.028-5.544-8.028-12.106S19.948,8.149,24.3,8.149Z" transform="translate(3.677 -4.258)" fill="#ffd500"/>
      <path id="Path_105" data-name="Path 105" d="M60.173,44.017a5.961,5.961,0,0,1-.6-.917C56.905,37.4,49.6,30.67,37.763,30.5l-.455,0c-11.653,0-18.9,6.371-21.806,12.334a4.621,4.621,0,0,1-.554.747,10.482,10.482,0,0,0-.783,1.028,20.954,20.954,0,0,0-3.516,12.085c.195,4.228,1.961,7.622,4.974,9.557a7.11,7.11,0,0,0,3.905,1.176c2.842,0,5.442-1.6,8.455-3.455a43.526,43.526,0,0,1,6.093-3.309,13.726,13.726,0,0,1,2.906-.2,17.332,17.332,0,0,1,3.674.28,40.316,40.316,0,0,1,5.853,3.388c2.794,1.839,5.432,3.578,8.294,3.578a7.074,7.074,0,0,0,3.543-.962c6.2-3.521,7.377-13.18,2.633-21.533A12.653,12.653,0,0,0,60.173,44.017Zm-3.75,19.345a3.2,3.2,0,0,1-1.621.454c-1.7,0-3.761-1.361-6.155-2.936a43.825,43.825,0,0,0-6.419-3.7,16.823,16.823,0,0,0-5.247-.612,13.2,13.2,0,0,0-4.36.486,47.437,47.437,0,0,0-6.678,3.6c-2.508,1.541-4.674,2.878-6.415,2.878a3.21,3.21,0,0,1-1.8-.56c-1.923-1.236-3.056-3.533-3.192-6.464a17.06,17.06,0,0,1,2.9-9.8,6.129,6.129,0,0,1,.5-.638A7.47,7.47,0,0,0,19,44.533c2.386-4.9,8.448-10.142,18.307-10.142l.4,0c10.033.141,16.148,5.666,18.335,10.352a9.408,9.408,0,0,0,1,1.586,8.532,8.532,0,0,1,.552.8C61.281,53.62,60.756,60.9,56.424,63.362Z" transform="translate(3.157 3.535)" fill="#ffd500"/>
      <path id="Path_106" data-name="Path 106" d="M43.84,36.251c6.573,0,11.92-7.176,11.92-16s-5.346-16-11.92-16-11.918,7.176-11.918,16S37.268,36.251,43.84,36.251Zm0-28.1c4.351,0,8.029,5.544,8.029,12.106S48.194,32.36,43.84,32.36s-8.027-5.544-8.027-12.106S39.488,8.149,43.84,8.149Z" transform="translate(9.479 -4.258)" fill="#ffd500"/>
      <path id="Path_107" data-name="Path 107" d="M58.355,22.592c-5.267,0-9.391,5.464-9.391,12.438s4.126,12.435,9.391,12.435S67.745,42,67.745,35.03,63.622,22.592,58.355,22.592Zm0,20.982c-2.982,0-5.5-3.914-5.5-8.544s2.519-8.547,5.5-8.547,5.5,3.914,5.5,8.547S61.336,43.574,58.355,43.574Z" transform="translate(14.54 1.186)" fill="#ffd500"/>
      <path id="Path_108" data-name="Path 108" d="M18.783,35.03c0-6.974-4.126-12.438-9.391-12.438S0,28.056,0,35.03,4.126,47.465,9.391,47.465,18.783,42,18.783,35.03ZM9.391,43.574c-2.982,0-5.5-3.914-5.5-8.544s2.519-8.547,5.5-8.547,5.5,3.914,5.5,8.547S12.373,43.574,9.391,43.574Z" transform="translate(0 1.186)" fill="#ffd500"/>
    </g>
  </g>
</svg>
