<svg xmlns="http://www.w3.org/2000/svg" width="63" height="63" viewBox="0 0 63 63">
  <g id="user" transform="translate(0)">
    <g id="Group_66" data-name="Group 66" transform="translate(0)">
      <path id="Path_143" data-name="Path 143" d="M53.774,40.726A31.379,31.379,0,0,0,41.8,33.218a18.211,18.211,0,1,0-20.608,0A31.55,31.55,0,0,0,0,63H4.922a26.578,26.578,0,1,1,53.156,0H63A31.3,31.3,0,0,0,53.774,40.726ZM31.5,31.5A13.289,13.289,0,1,1,44.789,18.211,13.3,13.3,0,0,1,31.5,31.5Z" transform="translate(0)" fill="#ffd500"/>
    </g>
  </g>
</svg>
