<svg xmlns="http://www.w3.org/2000/svg" width="64.754" height="82.003" viewBox="0 0 64.754 82.003">
  <g id="notification" transform="translate(-53.848)">
    <g id="Group_36" data-name="Group 36" transform="translate(53.848 0)">
      <g id="Group_35" data-name="Group 35">
        <path id="Path_121" data-name="Path 121" d="M116.157,60.55a8.378,8.378,0,0,1-2.728-6.165V38.439a1.6,1.6,0,1,0-3.2,0V54.384a11.589,11.589,0,0,0,3.77,8.53,4.164,4.164,0,0,1-2.809,7.237H61.215a4.164,4.164,0,0,1-2.809-7.237,11.589,11.589,0,0,0,3.77-8.53V35.876a24.029,24.029,0,0,1,34.506-21.62,11.863,11.863,0,1,0,2.1-2.526,27.159,27.159,0,0,0-7.593-2.618,5.926,5.926,0,1,0-9.987,0A27.271,27.271,0,0,0,58.973,35.876V54.384a8.378,8.378,0,0,1-2.728,6.165,7.367,7.367,0,0,0,4.97,12.8H76.076a10.25,10.25,0,0,0,20.249,0h14.861a7.367,7.367,0,0,0,4.97-12.8Zm-9.407-48.7A8.649,8.649,0,1,1,98.1,20.5,8.659,8.659,0,0,1,106.75,11.852ZM86.2,3.2a2.723,2.723,0,1,1-2.723,2.723A2.726,2.726,0,0,1,86.2,3.2Zm0,75.6a7.058,7.058,0,0,1-6.861-5.446H93.062A7.058,7.058,0,0,1,86.2,78.8Z" transform="translate(-53.848 0)" fill="#ffd500"/>
      </g>
    </g>
    <g id="Group_38" data-name="Group 38" transform="translate(66.661 34.241)">
      <g id="Group_37" data-name="Group 37" transform="translate(0)">
        <path id="Path_122" data-name="Path 122" d="M135.45,213.791a1.6,1.6,0,0,0-1.6,1.6v.033a1.6,1.6,0,0,0,3.2,0v-.033A1.6,1.6,0,0,0,135.45,213.791Z" transform="translate(-133.848 -213.791)" fill="#ffd500"/>
      </g>
    </g>
    <g id="Group_40" data-name="Group 40" transform="translate(68.079 16.336)">
      <g id="Group_39" data-name="Group 39">
        <path id="Path_123" data-name="Path 123" d="M160.826,102a19.516,19.516,0,0,0-17.994,11.91,1.6,1.6,0,1,0,2.949,1.252,16.318,16.318,0,0,1,15.045-9.958,1.6,1.6,0,1,0,0-3.2Z" transform="translate(-142.704 -101.999)" fill="#ffd500"/>
      </g>
    </g>
    <g id="Group_42" data-name="Group 42" transform="translate(103.258 15.189)">
      <g id="Group_41" data-name="Group 41">
        <path id="Path_124" data-name="Path 124" d="M366.4,94.955a1.6,1.6,0,0,0-1.745.347l-1.842,1.842a1.6,1.6,0,0,0,1.373,2.716v2.9a1.6,1.6,0,1,0,3.2,0V96.435A1.6,1.6,0,0,0,366.4,94.955Z" transform="translate(-362.348 -94.833)" fill="#ffd500"/>
      </g>
    </g>
  </g>
</svg>
